<?xml version="1.0" encoding="utf-8"?>
<!-- Generator: Adobe Illustrator 15.0.0, SVG Export Plug-In . SVG Version: 6.00 Build 0)  -->
<!DOCTYPE svg PUBLIC "-//W3C//DTD SVG 1.1//EN" "http://www.w3.org/Graphics/SVG/1.1/DTD/svg11.dtd">
<svg version="1.1" id="Layer_1" xmlns="http://www.w3.org/2000/svg" xmlns:xlink="http://www.w3.org/1999/xlink" x="0px" y="0px"
	 width="595.279px" height="841.89px" viewBox="0 0 595.279 841.89" enable-background="new 0 0 595.279 841.89"
	 xml:space="preserve">
<circle fill="#324A5E" cx="297.64" cy="420.945" r="297.64"/>
<path display="none" fill="#2B3B4E" d="M108.627,650.855c51.442,42.303,117.181,67.73,189.013,67.73s137.57-25.428,189.013-67.73
	H108.627z"/>
<polygon display="none" fill="#E6E9EE" points="368.417,649.566 149.757,649.566 184.444,332.122 333.732,332.122 "/>
<polygon display="none" fill="#CED5E0" points="325.529,649.566 192.646,649.566 223.816,332.122 294.241,332.122 "/>
<path display="none" fill="#FFFFFF" d="M337.599,332.122H180.576c-4.688,0-8.438-3.75-8.438-8.437l0,0
	c0-4.687,3.75-8.437,8.438-8.437h157.14c4.688,0,8.437,3.75,8.437,8.437l0,0C346.035,328.372,342.286,332.122,337.599,332.122z"/>
<rect x="202.138" y="241.892" display="none" fill="#FF7058" width="113.899" height="73.355"/>
<rect x="230.027" y="241.892" display="none" fill="#F1543F" width="58.122" height="73.355"/>
<path display="none" fill="#FFFFFF" d="M324.24,241.892H193.935c-3.047,0-5.508-2.46-5.508-5.507l0,0
	c0-3.047,2.461-5.507,5.508-5.507H324.24c3.046,0,5.507,2.46,5.507,5.507l0,0C329.747,239.432,327.286,241.892,324.24,241.892z"/>
<polygon display="none" fill="#FF7058" points="316.037,230.76 202.138,230.76 259.087,192.325 "/>
<polygon display="none" fill="#F1543F" points="288.149,230.76 230.027,230.76 259.087,192.325 "/>
<g display="none">
	<rect x="245.729" y="370.206" display="inline" fill="#ACB3BA" width="26.718" height="41.482"/>
	<rect x="245.729" y="439.695" display="inline" fill="#ACB3BA" width="26.718" height="41.48"/>
	<rect x="245.729" y="509.3" display="inline" fill="#ACB3BA" width="26.718" height="41.482"/>
	<rect x="245.729" y="578.789" display="inline" fill="#ACB3BA" width="26.718" height="41.482"/>
</g>
<path display="none" fill="#FFD05B" d="M316.037,304.818l278.306,93.159c-6.211-81.558-45.35-153.859-104.058-203.895
	l-174.131,58.239v52.497H316.037z"/>
<image overflow="visible" width="100" height="100" xlink:href="C:\Users\akauf\Downloads\icons8-image-100.png"  transform="matrix(6.0126 0 0 6.0126 -17.1799 119.0615)">
</image>
</svg>
